HIERARCHY
ROOT Hips
{
	OFFSET 46.467499 6.921126 84.177101
	CHANNELS 6 Xposition Yposition Zposition Xrotation Yrotation Zrotation
	JOINT spine
	{
		OFFSET 0.000000 -0.359108 6.244789
		CHANNELS 3 Xrotation Yrotation Zrotation
		JOINT spine1
		{
			OFFSET 0.000000 -0.000001 9.069412
			CHANNELS 3 Xrotation Yrotation Zrotation
			JOINT spine2
			{
				OFFSET 0.000000 -0.000001 8.690140
				CHANNELS 3 Xrotation Yrotation Zrotation
				JOINT Neck
				{
					OFFSET 0.000000 -1.063724 22.311203
					CHANNELS 3 Xrotation Yrotation Zrotation
					JOINT Head
					{
						OFFSET 0.000000 -0.000001 6.740814
						CHANNELS 3 Xrotation Yrotation Zrotation
						End Site
						{
							OFFSET 0.000000 5.380968 16.316498
						}
					}
				}
				JOINT RightShoulder
				{
					OFFSET -3.659161 0.509512 9.384682
					CHANNELS 3 Xrotation Yrotation Zrotation
					JOINT RightArm
					{
						OFFSET 0.000000 -0.000002 12.308907
						CHANNELS 3 Xrotation Yrotation Zrotation
						JOINT RightArmRoll
						{
							OFFSET 0.000000 -0.000001 6.213745
							CHANNELS 3 Xrotation Yrotation Zrotation
							JOINT RightForeArm
							{
								OFFSET 0.000000 -0.000003 18.098495
								CHANNELS 3 Xrotation Yrotation Zrotation
								JOINT RightForeArmRoll
								{
									OFFSET 0.000000 -0.000001 6.972794
									CHANNELS 3 Xrotation Yrotation Zrotation
									JOINT RightHand
									{
										OFFSET 0.000000 -0.000002 13.992905
										CHANNELS 3 Xrotation Yrotation Zrotation
										End Site
										{
											OFFSET 0.000000 0.000000 0.100006
										}
									}
								}
							}
						}
					}
				}
				JOINT LeftShoulder
				{
					OFFSET 3.659161 0.509512 9.384682
					CHANNELS 3 Xrotation Yrotation Zrotation
					JOINT LeftArm
					{
						OFFSET 0.000000 -0.000002 12.308907
						CHANNELS 3 Xrotation Yrotation Zrotation
						JOINT LeftArmRoll
						{
							OFFSET 0.000000 -0.000001 6.213745
							CHANNELS 3 Xrotation Yrotation Zrotation
							JOINT LeftForeArm
							{
								OFFSET 0.000000 -0.000003 18.098495
								CHANNELS 3 Xrotation Yrotation Zrotation
								JOINT LeftForeArmRoll
								{
									OFFSET 0.000000 -0.000001 6.972794
									CHANNELS 3 Xrotation Yrotation Zrotation
									JOINT LeftHand
									{
										OFFSET 0.000000 -0.000002 13.992905
										CHANNELS 3 Xrotation Yrotation Zrotation
										End Site
										{
											OFFSET 0.000000 0.000000 0.100006
										}
									}
								}
							}
						}
					}
				}
			}
		}
	}
	JOINT RightUpLeg
	{
		OFFSET -5.535149 0.851455 -1.014999
		CHANNELS 3 Xrotation Yrotation Zrotation
		JOINT RightUpLegRoll
		{
			OFFSET 0.000000 -0.000003 16.407501
			CHANNELS 3 Xrotation Yrotation Zrotation
			JOINT RightLeg
			{
				OFFSET 0.000000 0.000003 -20.318100
				CHANNELS 3 Xrotation Yrotation Zrotation
				JOINT RightLegRoll
				{
					OFFSET 0.000000 -0.000003 20.384598
					CHANNELS 3 Xrotation Yrotation Zrotation
					JOINT RightFoot
					{
						OFFSET 0.000000 -0.000003 16.966805
						CHANNELS 3 Xrotation Yrotation Zrotation
						JOINT RightToeBase
						{
							OFFSET 0.000000 -0.000002 14.183395
							CHANNELS 3 Xrotation Yrotation Zrotation
							End Site
							{
								OFFSET 0.006012 0.791745 6.868896
							}
						}
					}
				}
			}
		}
	}
	JOINT LeftUpLeg
	{
		OFFSET 5.535149 0.851455 -1.014999
		CHANNELS 3 Xrotation Yrotation Zrotation
		JOINT LeftUpLegRoll
		{
			OFFSET 0.000000 -0.000003 16.407600
			CHANNELS 3 Xrotation Yrotation Zrotation
			JOINT LeftLeg
			{
				OFFSET 0.000000 -0.000003 20.318100
				CHANNELS 3 Xrotation Yrotation Zrotation
				JOINT LeftLegRoll
				{
					OFFSET 0.000000 -0.000003 20.573105
					CHANNELS 3 Xrotation Yrotation Zrotation
					JOINT LeftFoot
					{
						OFFSET 0.000000 -0.000003 16.778305
						CHANNELS 3 Xrotation Yrotation Zrotation
						JOINT LeftToeBase
						{
							OFFSET 0.000000 -0.000002 14.183395
							CHANNELS 3 Xrotation Yrotation Zrotation
							End Site
							{
								OFFSET -0.026943 0.791746 6.868896
							}
						}
					}
				}
			}
		}
	}
}
MOTION
Frames: 11
Frame Time: 0.041667
42.548199 5.235974 89.471901 7.476600 -1.494729 -1.200059 -2.293625 0.438772 -0.077963 -0.583952 0.878472 -0.145062 1.061204 0.876678 -0.155576 -11.062987 11.637129 -0.213414 15.462206 -6.895279 -2.415318 -14.362648 -28.612518 -15.878766 -123.004248 -141.916605 -89.329462 0.000000 -0.000001 0.000001 34.788021 0.705340 -1.033586 -0.000008 -0.000003 -2.999999 -5.000183 -7.998716 0.000155 -22.738222 22.415576 28.307722 -135.228661 167.502685 94.267313 -0.000003 0.000014 -0.000001 17.229391 -7.693727 0.513660 -0.000002 -0.000005 3.000002 -5.000289 7.999680 -0.000061 -15.661112 192.420813 -2.008067 -179.999991 0.000006 -0.919995 164.387340 5.010100 -0.268023 -0.000006 0.000003 -0.720184 64.600810 7.237666 1.621891 25.323507 -7.355434 -0.163682 -14.182750 -195.879088 -2.870311 -0.000005 -0.000003 -1.069140 -18.748398 -2.618069 0.675597 0.000002 -0.000003 0.036041 66.927098 -6.815471 -2.466614 25.311877 7.355420 0.171530 
42.532700 5.210565 89.706291 7.491970 -1.498850 -1.162160 -2.291335 0.434851 -0.072408 -0.579422 0.870802 -0.133463 1.065733 0.869149 -0.143887 -11.480756 11.923241 -0.115039 15.883940 -7.104455 -2.383216 -14.465140 -28.635361 -16.028543 -122.269115 -141.357308 -88.999031 0.000001 -0.000003 -0.000001 34.613715 0.631207 -1.023004 -0.000006 -0.000003 -2.999998 -5.000188 -7.998714 0.000153 -22.890505 22.882906 28.518466 -134.919049 167.324349 94.314920 0.000001 0.000014 -0.000003 17.162338 -7.576892 0.518769 -0.000002 -0.000006 3.000002 -5.000284 7.999679 -0.000059 -15.614897 192.270822 -2.052972 -179.999991 0.000006 -0.922999 164.586577 5.050596 -0.276634 -0.000005 0.000004 -0.695844 64.714444 7.215327 1.659211 25.363817 -7.355565 -0.114275 -14.049526 -195.690070 -2.809405 -0.000005 -0.000003 -1.070840 -18.339821 -2.611495 0.676372 0.000003 -0.000003 0.042185 66.910309 -6.814155 -2.471187 25.355629 7.355566 0.119762 
42.560799 5.198795 89.925293 7.509660 -1.502924 -1.123722 -2.288736 0.430415 -0.066887 -0.574267 0.862075 -0.122005 1.070891 0.860560 -0.132325 -11.902904 12.217655 -0.014244 16.297598 -7.320452 -2.350759 -14.577217 -28.650871 -16.191525 -121.503710 -140.809186 -88.632346 0.000001 -0.000003 -0.000002 34.436902 0.562088 -1.014849 -0.000004 -0.000000 -3.000000 -5.000187 -7.998716 0.000158 -23.042435 23.348667 28.726980 -134.615761 167.142679 94.366406 -0.000001 0.000015 -0.000000 17.088742 -7.457662 0.522941 -0.000003 -0.000003 3.000003 -5.000284 7.999678 -0.000059 -15.575210 192.124260 -2.090428 -179.999991 0.000006 -0.927002 164.778887 5.079352 -0.285040 -0.000006 0.000002 -0.672617 64.818058 7.194054 1.695881 25.400189 -7.355625 -0.069636 -13.931264 -195.503742 -2.746118 -0.000005 -0.000003 -1.071990 -17.958278 -2.604493 0.677207 0.000002 -0.000003 0.047594 66.897598 -6.812803 -2.475496 25.395232 7.355635 0.072971 
42.514000 5.183075 90.136597 7.529280 -1.507168 -1.084648 -2.285763 0.425432 -0.061451 -0.568371 0.852216 -0.110809 1.076789 0.850837 -0.121011 -12.326776 12.522240 0.088660 16.699563 -7.544874 -2.318316 -14.698335 -28.658593 -16.367140 -120.706996 -140.273029 -88.228169 0.000000 -0.000001 -0.000000 34.256390 0.498721 -1.009560 -0.000005 0.000001 -3.000000 -5.000188 -7.998713 0.000153 -23.192152 23.812889 28.930246 -134.319795 166.956707 94.420638 -0.000002 0.000014 -0.000002 17.007632 -7.336691 0.526085 -0.000005 -0.000003 3.000003 -5.000280 7.999681 -0.000058 -15.540292 191.983189 -2.118338 -179.999991 0.000005 -0.929994 164.968603 5.091611 -0.295772 -0.000007 0.000002 -0.651869 64.904617 7.174605 1.730727 25.429781 -7.355642 -0.033318 -13.828839 -195.320092 -2.681056 -0.000005 -0.000005 -1.072500 -17.606561 -2.596354 0.678049 0.000002 -0.000001 0.052156 66.889374 -6.811398 -2.479621 25.427357 7.355642 0.034934 
42.525902 5.206763 90.342911 7.550457 -1.511804 -1.044867 -2.282370 0.419871 -0.056150 -0.561618 0.841155 -0.099994 1.083536 0.839907 -0.110065 -12.749620 12.838797 0.193339 17.086114 -7.779323 -2.286304 -14.828484 -28.657811 -16.555023 -119.878371 -139.749290 -87.785286 0.000002 -0.000003 -0.000002 34.071265 0.441848 -1.007580 -0.000007 -0.000005 -2.999998 -5.000191 -7.998715 0.000153 -23.337826 24.275614 29.125054 -134.032217 166.765339 94.476761 -0.000000 0.000015 -0.000002 16.918232 -7.214631 0.528134 -0.000001 -0.000006 3.000001 -5.000282 7.999682 -0.000057 -15.508192 191.847733 -2.134054 -179.999991 0.000007 -0.933996 165.159889 5.083547 -0.307073 -0.000006 0.000002 -0.634970 64.966970 7.157842 1.762794 25.449684 -7.355626 -0.008923 -13.743178 -195.140130 -2.614574 -0.000005 -0.000004 -1.072280 -17.287562 -2.586382 0.678843 0.000002 -0.000002 0.055756 66.886472 -6.810040 -2.483221 25.448964 7.355624 0.009363 
42.490200 5.183204 90.540001 7.572801 -1.517039 -1.004311 -2.278488 0.413698 -0.051037 -0.553892 0.828820 -0.089680 1.091264 0.827696 -0.099604 -13.168905 13.169216 0.299506 17.453543 -8.025453 -2.255123 -14.967089 -28.647992 -16.754534 -119.017371 -139.238829 -87.303007 0.000002 -0.000004 0.000002 33.880317 0.392222 -1.009328 -0.000007 -0.000005 -2.999997 -5.000185 -7.998718 0.000153 -23.477870 24.736896 29.308202 -133.753846 166.567509 94.533636 -0.000000 0.000015 -0.000002 16.819773 -7.092143 0.529019 -0.000001 -0.000007 3.000004 -5.000283 7.999681 -0.000059 -15.476975 191.721839 -2.135981 -179.999991 0.000005 -0.937001 165.356967 5.051339 -0.321108 -0.000006 0.000002 -0.623286 64.997829 7.144567 1.790710 25.456957 -7.355621 0.000012 -13.675232 -194.964813 -2.547022 -0.000005 -0.000006 -1.071250 -17.003870 -2.573890 0.679567 0.000002 -0.000005 0.058281 66.889559 -6.808726 -2.486362 25.456851 7.355619 0.000012 
42.494705 5.202065 90.744797 7.598258 -1.523184 -0.962756 -2.274016 0.406655 -0.045906 -0.544979 0.814695 -0.079451 1.100171 0.813695 -0.089207 -13.600130 13.521936 0.410530 17.815215 -8.290515 -2.224014 -15.123207 -28.615130 -16.978693 -118.089121 -138.744829 -86.746503 0.000002 -0.000003 -0.000000 33.684932 0.353110 -1.015909 -0.000004 -0.000005 -2.999996 -5.000191 -7.998712 0.000153 -23.618897 25.204595 29.490049 -133.488917 166.371073 94.598414 -0.000001 0.000014 -0.000002 16.713915 -6.967399 0.529466 -0.000003 -0.000007 3.000001 -5.000283 7.999680 -0.000056 -15.452398 191.601368 -2.123829 -179.999991 0.000004 -0.941004 165.551559 4.998606 -0.335920 -0.000006 0.000003 -0.613988 65.009665 7.132685 1.817695 25.456957 -7.355625 0.000018 -13.627738 -194.791108 -2.477363 -0.000005 -0.000005 -1.069360 -16.757919 -2.560086 0.680277 0.000001 -0.000006 0.059778 66.898056 -6.807313 -2.489143 25.456844 7.355617 0.000013 
42.469101 5.187554 90.933189 7.628729 -1.530202 -0.920132 -2.268935 0.398589 -0.040549 -0.534854 0.798486 -0.068861 1.110287 0.797614 -0.078423 -14.058214 13.900896 0.530310 18.185023 -8.578033 -2.191571 -15.303058 -28.549342 -17.237062 -117.066287 -138.272248 -86.088640 0.000001 0.000001 -0.000000 33.487427 0.326097 -1.027497 -0.000008 -0.000004 -2.999999 -5.000189 -7.998715 0.000153 -23.768211 25.684411 29.681933 -133.239478 166.182587 94.677179 -0.000001 0.000014 -0.000001 16.603299 -6.838260 0.530177 -0.000001 -0.000005 3.000000 -5.000281 7.999679 -0.000058 -15.441132 191.484995 -2.100922 -179.999991 0.000004 -0.945007 165.732546 4.932826 -0.351367 -0.000006 0.000001 -0.603419 65.019665 7.119863 1.847090 25.456952 -7.355625 0.000014 -13.601821 -194.618031 -2.404005 -0.000006 -0.000005 -1.066731 -16.548415 -2.546663 0.681115 0.000002 -0.000003 0.060413 66.910664 -6.805690 -2.492130 25.456846 7.355617 0.000011 
42.482201 5.179045 91.115082 7.663688 -1.537807 -0.876588 -2.263331 0.389627 -0.035010 -0.523688 0.780453 -0.057985 1.121453 0.779713 -0.067331 -14.539410 14.300995 0.659035 18.560745 -8.883921 -2.157254 -15.503027 -28.456013 -17.524418 -115.959564 -137.824721 -85.339771 0.000003 -0.000002 -0.000000 33.287962 0.309417 -1.043187 -0.000001 -0.000005 -3.000002 -5.000188 -7.998715 0.000156 -23.924536 26.173094 29.882173 -133.003277 165.999688 94.768117 0.000001 0.000013 -0.000003 16.487655 -6.704992 0.531021 -0.000004 -0.000006 3.000002 -5.000280 7.999678 -0.000059 -15.442062 191.371847 -2.068473 -179.999991 0.000005 -0.948995 165.900186 4.853974 -0.366422 -0.000006 0.000002 -0.591707 65.028325 7.106243 1.878498 25.456953 -7.355625 0.000014 -13.595509 -194.444735 -2.327783 -0.000005 -0.000005 -1.063410 -16.372250 -2.533590 0.682091 0.000000 -0.000001 0.060252 66.927091 -6.803898 -2.495245 25.456853 7.355616 0.000011 
42.441601 5.178465 91.281891 7.702642 -1.545693 -0.832258 -2.257300 0.379896 -0.029332 -0.511654 0.760856 -0.046899 1.133490 0.760249 -0.056012 -15.040022 14.717391 0.796741 18.939952 -9.204089 -2.120704 -15.719320 -28.340664 -17.835437 -114.780646 -137.405238 -84.511344 -0.000001 -0.000003 -0.000001 33.086830 0.301273 -1.062079 -0.000004 -0.000004 -2.999999 -5.000186 -7.998718 0.000155 -24.086759 26.667514 30.089135 -132.778208 165.819931 94.869613 0.000001 0.000014 -0.000000 16.367006 -6.567859 0.531910 -0.000002 -0.000004 3.000004 -5.000283 7.999677 -0.000059 -15.454117 191.260993 -2.027719 -179.999991 0.000006 -0.953995 166.054658 4.764024 -0.381552 -0.000005 0.000003 -0.578982 65.035866 7.091924 1.911523 25.456959 -7.355624 0.000014 -13.606968 -194.272409 -2.249035 -0.000005 -0.000004 -1.059491 -16.226535 -2.520859 0.683203 0.000002 -0.000002 0.059358 66.947144 -6.801952 -2.498405 25.456848 7.355619 0.000009 
42.424801 5.164585 91.457298 7.745104 -1.553564 -0.787283 -2.250917 0.369523 -0.023558 -0.498922 0.739954 -0.035679 1.146215 0.739484 -0.044542 -15.556178 15.145391 0.943262 19.320247 -9.534393 -2.081720 -15.948270 -28.208775 -18.164977 -113.542428 -137.015958 -83.615866 0.000002 -0.000001 -0.000000 32.884315 0.299861 -1.083302 -0.000004 -0.000007 -3.000002 -5.000190 -7.998715 0.000155 -24.253561 27.164542 30.300867 -132.562101 165.640926 94.979641 -0.000001 0.000013 -0.000003 16.241172 -6.427105 0.532723 -0.000003 -0.000003 3.000002 -5.000279 7.999680 -0.000058 -15.476398 191.151546 -1.979953 -179.999991 0.000005 -0.958995 166.196179 4.664901 -0.396273 -0.000007 0.000004 -0.565372 65.042642 7.077127 1.945798 25.456953 -7.355625 0.000015 -13.634294 -194.101122 -2.168305 -0.000005 -0.000005 -1.055050 -16.108151 -2.508443 0.684459 0.000001 -0.000002 0.057795 66.970503 -6.799878 -2.501637 25.456846 7.355619 0.000012 
